<svg id="visual" viewBox="0 0 900 600" width="900" height="600" xmlns="http://www.w3.org/2000/svg" xmlns:xlink="http://www.w3.org/1999/xlink" version="1.1"><path d="M625 0L628.2 16.7C631.3 33.3 637.7 66.7 617.7 100C597.7 133.3 551.3 166.7 518.7 200C486 233.3 467 266.7 459 300C451 333.3 454 366.7 476.5 400C499 433.3 541 466.7 542.2 500C543.3 533.3 503.7 566.7 483.8 583.3L464 600L0 600L0 583.3C0 566.7 0 533.3 0 500C0 466.7 0 433.3 0 400C0 366.7 0 333.3 0 300C0 266.7 0 233.3 0 200C0 166.7 0 133.3 0 100C0 66.7 0 33.3 0 16.7L0 0Z" fill="#ff9f29"></path><path d="M291 0L313.5 16.7C336 33.3 381 66.7 405.8 100C430.7 133.3 435.3 166.7 416.7 200C398 233.3 356 266.7 334.7 300C313.3 333.3 312.7 366.7 320.8 400C329 433.3 346 466.7 345.3 500C344.7 533.3 326.3 566.7 317.2 583.3L308 600L0 600L0 583.3C0 566.7 0 533.3 0 500C0 466.7 0 433.3 0 400C0 366.7 0 333.3 0 300C0 266.7 0 233.3 0 200C0 166.7 0 133.3 0 100C0 66.7 0 33.3 0 16.7L0 0Z" fill="#ffb456"></path><path d="M211 0L200 16.7C189 33.3 167 66.7 165.8 100C164.7 133.3 184.3 166.7 196.2 200C208 233.3 212 266.7 201 300C190 333.3 164 366.7 175 400C186 433.3 234 466.7 235.8 500C237.7 533.3 193.3 566.7 171.2 583.3L149 600L0 600L0 583.3C0 566.7 0 533.3 0 500C0 466.7 0 433.3 0 400C0 366.7 0 333.3 0 300C0 266.7 0 233.3 0 200C0 166.7 0 133.3 0 100C0 66.7 0 33.3 0 16.7L0 0Z" fill="#ffc87f"></path></svg>