<svg id="visual" viewBox="0 0 900 310" width="900" height="310" xmlns="http://www.w3.org/2000/svg" xmlns:xlink="http://www.w3.org/1999/xlink" version="1.1"><path d="M0 159L21.5 162.7C43 166.3 86 173.7 128.8 177.3C171.7 181 214.3 181 257.2 182.7C300 184.3 343 187.7 385.8 180.8C428.7 174 471.3 157 514.2 150.3C557 143.7 600 147.3 642.8 151.8C685.7 156.3 728.3 161.7 771.2 165.7C814 169.7 857 172.3 878.5 173.7L900 175L900 0L878.5 0C857 0 814 0 771.2 0C728.3 0 685.7 0 642.8 0C600 0 557 0 514.2 0C471.3 0 428.7 0 385.8 0C343 0 300 0 257.2 0C214.3 0 171.7 0 128.8 0C86 0 43 0 21.5 0L0 0Z" fill="#ff9f29"></path><path d="M0 82L21.5 83.5C43 85 86 88 128.8 92.5C171.7 97 214.3 103 257.2 110.2C300 117.3 343 125.7 385.8 122.7C428.7 119.7 471.3 105.3 514.2 105.8C557 106.3 600 121.7 642.8 121.2C685.7 120.7 728.3 104.3 771.2 102.5C814 100.7 857 113.3 878.5 119.7L900 126L900 0L878.5 0C857 0 814 0 771.2 0C728.3 0 685.7 0 642.8 0C600 0 557 0 514.2 0C471.3 0 428.7 0 385.8 0C343 0 300 0 257.2 0C214.3 0 171.7 0 128.8 0C86 0 43 0 21.5 0L0 0Z" fill="#ffb456"></path><path d="M0 31L21.5 32.7C43 34.3 86 37.7 128.8 43.3C171.7 49 214.3 57 257.2 63.7C300 70.3 343 75.7 385.8 77.3C428.7 79 471.3 77 514.2 69C557 61 600 47 642.8 41.8C685.7 36.7 728.3 40.3 771.2 40.5C814 40.7 857 37.3 878.5 35.7L900 34L900 0L878.5 0C857 0 814 0 771.2 0C728.3 0 685.7 0 642.8 0C600 0 557 0 514.2 0C471.3 0 428.7 0 385.8 0C343 0 300 0 257.2 0C214.3 0 171.7 0 128.8 0C86 0 43 0 21.5 0L0 0Z" fill="#ffc87f"></path></svg>