<svg id="visual" viewBox="0 0 900 250" width="900" height="250" xmlns="http://www.w3.org/2000/svg" xmlns:xlink="http://www.w3.org/1999/xlink" version="1.1"><path d="M0 183L21.5 187.2C43 191.3 86 199.7 128.8 204C171.7 208.3 214.3 208.7 257.2 210.7C300 212.7 343 216.3 385.8 208.3C428.7 200.3 471.3 180.7 514.2 173C557 165.3 600 169.7 642.8 175C685.7 180.3 728.3 186.7 771.2 191.3C814 196 857 199 878.5 200.5L900 202L900 0L878.5 0C857 0 814 0 771.2 0C728.3 0 685.7 0 642.8 0C600 0 557 0 514.2 0C471.3 0 428.7 0 385.8 0C343 0 300 0 257.2 0C214.3 0 171.7 0 128.8 0C86 0 43 0 21.5 0L0 0Z" fill="#ff9f29"></path><path d="M0 95L21.5 96.7C43 98.3 86 101.7 128.8 106.8C171.7 112 214.3 119 257.2 127.2C300 135.3 343 144.7 385.8 141.2C428.7 137.7 471.3 121.3 514.2 122C557 122.7 600 140.3 642.8 139.7C685.7 139 728.3 120 771.2 118C814 116 857 131 878.5 138.5L900 146L900 0L878.5 0C857 0 814 0 771.2 0C728.3 0 685.7 0 642.8 0C600 0 557 0 514.2 0C471.3 0 428.7 0 385.8 0C343 0 300 0 257.2 0C214.3 0 171.7 0 128.8 0C86 0 43 0 21.5 0L0 0Z" fill="#ffb456"></path><path d="M0 35L21.5 37C43 39 86 43 128.8 49.5C171.7 56 214.3 65 257.2 72.7C300 80.3 343 86.7 385.8 88.8C428.7 91 471.3 89 514.2 79.8C557 70.7 600 54.3 642.8 48.3C685.7 42.3 728.3 46.7 771.2 46.8C814 47 857 43 878.5 41L900 39L900 0L878.5 0C857 0 814 0 771.2 0C728.3 0 685.7 0 642.8 0C600 0 557 0 514.2 0C471.3 0 428.7 0 385.8 0C343 0 300 0 257.2 0C214.3 0 171.7 0 128.8 0C86 0 43 0 21.5 0L0 0Z" fill="#ffc87f"></path></svg>